# xmcd
#
# Track frame offsets:
#	150
#	13692
#	25224
#	37341
#	53995
#	64483
#	76697
#	90160
#	99966
#	114312
#	129244
#	143147
#	156446
#	169265
#	184344
#	201653
#	216849
#	231812
#	245504
#	258746
#
# Disc length: 3614 seconds
#
# Revision: 1
# Processed by: cddbd v1.4PL0 Copyright (c) Steve Scherf et al.
# Submitted via: CDmax 2.0
#
DISCID=1e0e1c14
DTITLE=Various Artist - The Best of Boogie Woogie - CD 2
DYEAR=2003
DGENRE=Blues
TTITLE0=44 Blues - Roosevelt Sykes
TTITLE1=Kidman Blues - Big Maceo
TTITLE2=Barrelhouse Woman No.2 - Leroy Carr
TTITLE3=Boogie Woogie Blues - Albert Ammons
TTITLE4=Lux' Boogie - Meade Lux Lewis
TTITLE5=Sixth Avenue Express - Albert Ammons and Pete Johnson
TTITLE6=Death Ray Boogie - Pete Johnson
TTITLE7=Glendale Glide - Meade Lux Lewis
TTITLE8=Slum Gullion Stomp - Cow Cow Davenport
TTITLE9=Jump Steady Blues - Pinetop Smith
TTITLE10=K Special - Jimmy Yancey
TTITLE11=Strut That Thing - Clarence Lofton and Red Nelson
TTITLE12=Wilkins Street Stomp - Speckled Red
TTITLE13=Detroit Rocks - Montana Taylor
TTITLE14=Suitcase Blues - Albert Ammons
TTITLE15=Papa De Da Da - Clarence Williams
TTITLE16=Climbin' And Screamin' - Pete Johnson
TTITLE17=Chain 'em Down - Leroy Garnett
TTITLE18=Getting Dirty - Romeo Nelson
TTITLE19=Detroit Jump - Big Maceo
EXTD=
EXTT0=(Sykes)
EXTT1=(Merriweather)
EXTT2=(Williams)
EXTT3=(Ammons)
EXTT4=(Lewis)
EXTT5=(Ammons/Johnson)
EXTT6=(Johnson/Dexter)
EXTT7=(Lewis)
EXTT8=(Davenport)
EXTT9=(Smith)
EXTT10=(Yancey)
EXTT11=(Lofton)
EXTT12=(Perryman)
EXTT13=(Taylor)
EXTT14=(Thomas)
EXTT15=(Williams/Todd)
EXTT16=(Johnson)
EXTT17=(Garnett)
EXTT18=(Nelson)
EXTT19=(Merriweather)
PLAYORDER=
